<mxfile host="65bd71144e">
    <diagram id="C5RBs43oDa-KdzZeNtuy" name="Page-1">
        <mxGraphModel dx="1350" dy="790" grid="1" gridSize="10" guides="1" tooltips="1" connect="1" arrows="1" fold="1" page="1" pageScale="1" pageWidth="827" pageHeight="1169" math="0" shadow="0">
            <root>
                <mxCell id="WIyWlLk6GJQsqaUBKTNV-0"/>
                <mxCell id="WIyWlLk6GJQsqaUBKTNV-1" parent="WIyWlLk6GJQsqaUBKTNV-0"/>
                <mxCell id="WIyWlLk6GJQsqaUBKTNV-2" value="" style="rounded=0;html=1;jettySize=auto;orthogonalLoop=1;fontSize=11;endArrow=block;endFill=0;endSize=8;strokeWidth=1;shadow=0;labelBackgroundColor=none;edgeStyle=orthogonalEdgeStyle;" parent="WIyWlLk6GJQsqaUBKTNV-1" source="WIyWlLk6GJQsqaUBKTNV-3" edge="1">
                    <mxGeometry relative="1" as="geometry">
                        <mxPoint x="220" y="160" as="targetPoint"/>
                    </mxGeometry>
                </mxCell>
                <mxCell id="WIyWlLk6GJQsqaUBKTNV-3" value="User Enter ELEMENT" style="rounded=1;whiteSpace=wrap;html=1;fontSize=12;glass=0;strokeWidth=1;shadow=0;fillColor=#f5f5f5;strokeColor=#666666;fontColor=#333333;" parent="WIyWlLk6GJQsqaUBKTNV-1" vertex="1">
                    <mxGeometry x="160" y="80" width="120" height="40" as="geometry"/>
                </mxCell>
                <mxCell id="WIyWlLk6GJQsqaUBKTNV-4" value="Yes" style="rounded=0;html=1;jettySize=auto;orthogonalLoop=1;fontSize=11;endArrow=block;endFill=0;endSize=8;strokeWidth=1;shadow=0;labelBackgroundColor=none;edgeStyle=orthogonalEdgeStyle;entryX=0.5;entryY=0;entryDx=0;entryDy=0;exitX=0.5;exitY=1;exitDx=0;exitDy=0;" parent="WIyWlLk6GJQsqaUBKTNV-1" source="WIyWlLk6GJQsqaUBKTNV-6" target="WIyWlLk6GJQsqaUBKTNV-12" edge="1">
                    <mxGeometry y="20" relative="1" as="geometry">
                        <mxPoint as="offset"/>
                        <mxPoint x="220" y="330" as="targetPoint"/>
                        <mxPoint x="220" y="330" as="sourcePoint"/>
                    </mxGeometry>
                </mxCell>
                <mxCell id="WIyWlLk6GJQsqaUBKTNV-5" value="No" style="edgeStyle=orthogonalEdgeStyle;rounded=0;html=1;jettySize=auto;orthogonalLoop=1;fontSize=11;endArrow=block;endFill=0;endSize=8;strokeWidth=1;shadow=0;labelBackgroundColor=none;" parent="WIyWlLk6GJQsqaUBKTNV-1" source="WIyWlLk6GJQsqaUBKTNV-6" target="WIyWlLk6GJQsqaUBKTNV-7" edge="1">
                    <mxGeometry y="10" relative="1" as="geometry">
                        <mxPoint as="offset"/>
                    </mxGeometry>
                </mxCell>
                <mxCell id="WIyWlLk6GJQsqaUBKTNV-6" value="&lt;font color=&quot;#ff0000&quot;&gt;Après la 2ème lettre&lt;br&gt;à chaque lettre ajoutée ou supprimé&lt;br&gt;ELEMENT&lt;br&gt;in Database ?&lt;/font&gt;" style="rhombus;whiteSpace=wrap;html=1;shadow=0;fontFamily=Helvetica;fontSize=12;align=center;strokeWidth=1;spacing=6;spacingTop=-4;fillColor=#fff2cc;strokeColor=#d6b656;" parent="WIyWlLk6GJQsqaUBKTNV-1" vertex="1">
                    <mxGeometry x="120" y="160" width="200" height="160" as="geometry"/>
                </mxCell>
                <mxCell id="WIyWlLk6GJQsqaUBKTNV-7" value="Pas d'affichage" style="rounded=1;whiteSpace=wrap;html=1;fontSize=12;glass=0;strokeWidth=1;shadow=0;" parent="WIyWlLk6GJQsqaUBKTNV-1" vertex="1">
                    <mxGeometry x="380" y="220" width="120" height="40" as="geometry"/>
                </mxCell>
                <mxCell id="WIyWlLk6GJQsqaUBKTNV-8" value="Yes" style="rounded=0;html=1;jettySize=auto;orthogonalLoop=1;fontSize=11;endArrow=block;endFill=0;endSize=8;strokeWidth=1;shadow=0;labelBackgroundColor=none;edgeStyle=orthogonalEdgeStyle;" parent="WIyWlLk6GJQsqaUBKTNV-1" target="WIyWlLk6GJQsqaUBKTNV-11" edge="1">
                    <mxGeometry x="0.4286" y="-20" relative="1" as="geometry">
                        <mxPoint as="offset"/>
                        <mxPoint x="220" y="420" as="sourcePoint"/>
                    </mxGeometry>
                </mxCell>
                <mxCell id="WIyWlLk6GJQsqaUBKTNV-11" value="L'utilisateur selectionne le plat dans l'affichage filtré" style="rounded=1;whiteSpace=wrap;html=1;fontSize=12;glass=0;strokeWidth=1;shadow=0;" parent="WIyWlLk6GJQsqaUBKTNV-1" vertex="1">
                    <mxGeometry x="160" y="450" width="120" height="60" as="geometry"/>
                </mxCell>
                <mxCell id="H6CgXIFpcNtFsIypO7Kw-4" value="" style="edgeStyle=orthogonalEdgeStyle;rounded=0;orthogonalLoop=1;jettySize=auto;html=1;" parent="WIyWlLk6GJQsqaUBKTNV-1" source="WIyWlLk6GJQsqaUBKTNV-12" target="WIyWlLk6GJQsqaUBKTNV-11" edge="1">
                    <mxGeometry relative="1" as="geometry"/>
                </mxCell>
                <mxCell id="1" value="" style="edgeStyle=none;html=1;exitX=0;exitY=0.5;exitDx=0;exitDy=0;entryX=0;entryY=0.5;entryDx=0;entryDy=0;" edge="1" parent="WIyWlLk6GJQsqaUBKTNV-1" source="WIyWlLk6GJQsqaUBKTNV-6" target="WIyWlLk6GJQsqaUBKTNV-3">
                    <mxGeometry relative="1" as="geometry">
                        <mxPoint x="110" y="120" as="targetPoint"/>
                        <Array as="points">
                            <mxPoint x="80" y="240"/>
                            <mxPoint x="80" y="100"/>
                        </Array>
                    </mxGeometry>
                </mxCell>
                <mxCell id="WIyWlLk6GJQsqaUBKTNV-12" value="Affiche les plats filtré ELEMENT" style="rounded=1;whiteSpace=wrap;html=1;fontSize=12;glass=0;strokeWidth=1;shadow=0;" parent="WIyWlLk6GJQsqaUBKTNV-1" vertex="1">
                    <mxGeometry x="160" y="370" width="120" height="40" as="geometry"/>
                </mxCell>
                <mxCell id="H6CgXIFpcNtFsIypO7Kw-2" value="No" style="rounded=0;html=1;jettySize=auto;orthogonalLoop=1;fontSize=11;endArrow=block;endFill=0;endSize=8;strokeWidth=1;shadow=0;labelBackgroundColor=none;edgeStyle=orthogonalEdgeStyle;entryX=1;entryY=0.5;entryDx=0;entryDy=0;exitX=0.5;exitY=0;exitDx=0;exitDy=0;" parent="WIyWlLk6GJQsqaUBKTNV-1" source="WIyWlLk6GJQsqaUBKTNV-7" target="WIyWlLk6GJQsqaUBKTNV-3" edge="1">
                    <mxGeometry x="-0.5556" y="20" relative="1" as="geometry">
                        <mxPoint as="offset"/>
                        <mxPoint x="390" y="110" as="sourcePoint"/>
                        <mxPoint x="230" y="440" as="targetPoint"/>
                        <Array as="points">
                            <mxPoint x="440" y="100"/>
                        </Array>
                    </mxGeometry>
                </mxCell>
            </root>
        </mxGraphModel>
    </diagram>
</mxfile>